<?xml version="1.0" standalone="no"?>
<!DOCTYPE svg PUBLIC "-//W3C//DTD SVG 20010904//EN"
 "http://www.w3.org/TR/2001/REC-SVG-20010904/DTD/svg10.dtd">
<svg version="1.0" xmlns="http://www.w3.org/2000/svg"
 width="3704.000000pt" height="2470.000000pt" viewBox="0 0 3704.000000 2470.000000"
 preserveAspectRatio="xMidYMid meet">
<metadata>
Created by potrace 1.15, written by Peter Selinger 2001-2017
</metadata>
<g transform="translate(0.000000,2470.000000) scale(0.100000,-0.100000)"
fill="#000000" stroke="none">
<path d="M12275 16484 c-125 -30 -227 -121 -269 -240 -22 -65 -25 -285 -31
-2519 -3 -1149 -8 -2189 -10 -2309 l-4 -219 -55 -56 c-55 -56 -56 -57 -60
-127 -9 -126 -19 -1899 -12 -1966 7 -63 10 -68 66 -124 l58 -59 3 -165 c4
-163 5 -166 36 -231 45 -92 101 -143 209 -195 84 -41 98 -44 173 -45 67 -1 80
-3 71 -14 -20 -24 8 -28 39 -6 18 13 44 21 68 20 21 0 31 -3 23 -6 -8 -4 -21
-12 -28 -20 -7 -7 -27 -13 -44 -13 -20 0 -28 -4 -24 -12 3 -7 9 -20 12 -30 3
-9 14 -18 25 -21 15 -4 19 0 19 19 0 13 4 24 8 24 14 0 32 -23 32 -42 0 -11 7
-18 19 -18 11 0 21 -9 24 -22 5 -16 9 -19 19 -11 26 21 66 24 77 6 8 -15 11
-15 27 -3 9 8 26 14 36 12 16 -3 19 1 14 16 -8 23 2 52 16 52 7 0 7 -4 0 -12
-13 -16 -3 -70 12 -65 6 2 10 20 8 40 -3 41 6 51 32 32 13 -10 16 -20 11 -32
-5 -10 -7 -22 -6 -27 1 -5 -6 -17 -15 -27 -10 -11 -14 -22 -11 -26 7 -6 39 26
58 57 8 13 10 13 18 0 8 -12 13 -8 26 20 l16 35 -6 -39 c-6 -36 -5 -38 9 -26
9 7 14 15 11 18 -7 7 15 32 27 32 6 0 8 -12 5 -29 -5 -25 -3 -30 18 -33 22 -5
24 -1 30 44 7 49 7 49 26 29 10 -11 19 -32 19 -46 0 -16 6 -25 15 -25 12 0 13
4 5 19 -13 25 -13 64 0 56 6 -4 8 -10 5 -14 -2 -5 4 -16 15 -26 13 -12 20 -31
20 -57 0 -21 5 -38 10 -38 6 0 11 5 11 10 1 6 2 14 3 20 0 5 10 16 21 24 16
12 17 17 7 24 -11 7 -9 11 7 15 12 3 21 9 20 14 -4 21 2 33 16 33 18 0 19 -12
4 -27 -8 -8 -6 -14 10 -22 17 -10 20 -9 15 4 -4 10 -2 15 7 13 8 -2 18 11 23
30 6 17 14 32 19 32 10 0 -3 -124 -14 -128 -5 -2 -9 -7 -9 -12 0 -4 10 -3 23
3 30 14 46 48 36 75 -6 16 -5 22 6 22 8 0 15 -4 15 -9 0 -5 9 -11 20 -14 11
-3 24 -17 30 -31 11 -29 28 -34 36 -11 9 22 33 18 31 -5 -1 -12 -11 -23 -24
-26 -13 -4 -23 -13 -23 -21 0 -13 3 -13 15 -3 12 10 18 10 30 0 13 -10 15 -9
15 9 0 11 4 21 8 21 19 0 53 43 49 61 -3 11 -1 19 3 19 4 0 12 -17 18 -37 9
-34 10 -35 11 -10 1 25 21 41 21 16 0 -6 9 -8 20 -4 14 4 20 2 20 -8 0 -8 -10
-18 -22 -22 -14 -4 -18 -8 -10 -12 6 -2 12 -13 12 -24 0 -11 7 -19 16 -19 12
0 15 6 11 21 -5 20 -5 20 14 3 17 -15 19 -15 19 -1 0 8 -4 17 -8 19 -5 1 6 18
25 36 21 21 33 27 33 18 0 -8 -8 -21 -19 -28 -19 -13 -22 -50 -6 -57 6 -2 14
6 20 18 5 11 18 21 27 21 10 0 18 5 18 11 0 20 54 5 66 -19 17 -34 26 -40 22
-12 -2 17 2 26 15 28 10 2 17 -3 17 -13 0 -9 5 -13 10 -10 6 4 8 11 5 16 -4 5
5 14 19 20 14 7 22 17 19 25 -3 8 1 14 11 14 9 0 16 -6 16 -14 0 -7 7 -19 15
-26 16 -14 21 0 5 16 -11 11 -2 25 28 42 18 10 22 10 22 -2 0 -8 -5 -18 -10
-21 -16 -10 26 -62 49 -60 28 2 51 24 44 42 -5 12 -1 14 15 9 13 -5 23 -2 29
9 6 10 26 16 63 18 l55 2 9 -37 c5 -21 14 -38 19 -38 5 0 7 7 3 15 -7 19 3 45
16 45 6 0 8 -11 6 -25 -6 -28 8 -32 37 -12 13 10 15 16 6 21 -6 4 -9 12 -6 17
4 5 1 9 -4 9 -6 0 -11 7 -11 15 0 26 43 -21 47 -50 3 -19 -1 -25 -16 -25 -10
0 -21 -7 -25 -15 -3 -8 -1 -15 4 -15 17 0 25 5 22 13 -1 4 9 7 23 7 18 0 23 4
19 15 -4 8 -1 15 6 15 7 0 10 7 6 16 -5 13 -1 15 18 10 19 -5 24 -2 21 12 -2
9 -4 20 -4 24 -1 4 -14 5 -31 1 -38 -7 -39 9 -2 23 31 12 52 8 52 -10 0 -20
39 -56 60 -56 15 0 21 9 26 41 5 27 10 36 15 27 5 -7 6 -22 3 -33 -3 -12 -2
-15 3 -8 6 8 13 8 27 -3 17 -12 18 -14 3 -14 -9 0 -17 -7 -17 -16 0 -10 7 -14
23 -12 14 2 22 10 22 23 0 28 42 39 64 18 15 -15 14 -16 -8 -10 -27 7 -50 -14
-51 -45 0 -16 3 -15 35 3 21 13 46 19 60 17 17 -4 25 -1 25 8 0 8 7 14 15 14
9 0 14 -8 12 -22 -1 -18 2 -22 17 -20 13 3 17 -1 13 -12 -3 -8 -2 -18 2 -20
17 -11 20 8 6 41 -14 33 -14 34 8 31 14 -2 31 6 46 22 l23 25 -6 -28 c-5 -19
-3 -26 4 -22 5 3 10 3 10 -2 1 -4 10 -19 21 -32 19 -23 20 -23 34 -5 8 11 11
29 8 43 -4 18 -3 22 7 16 10 -6 12 -4 7 8 -3 8 0 20 7 26 10 9 15 6 19 -11 6
-22 7 -22 20 -4 9 12 20 17 31 13 14 -6 14 -10 4 -27 -11 -16 -10 -22 7 -34
11 -9 23 -16 27 -16 6 0 44 43 65 76 11 17 14 17 25 3 22 -26 71 -39 93 -23
10 7 22 11 26 8 5 -3 9 4 9 15 0 29 19 26 30 -4 11 -30 25 -34 17 -5 -4 15 0
20 15 20 16 0 19 -5 15 -21 -6 -24 14 -51 35 -47 7 2 12 -4 10 -14 -4 -27 17
-31 24 -4 3 13 12 27 20 30 9 4 12 2 8 -5 -4 -8 1 -9 16 -4 20 6 22 4 18 -19
-4 -18 -1 -26 8 -26 9 0 14 12 14 35 0 28 4 35 20 35 16 0 20 7 20 30 0 17 4
30 8 30 17 0 21 -13 11 -31 -7 -14 -6 -19 2 -19 7 0 9 -10 7 -25 -3 -14 -1
-25 5 -25 6 0 7 16 3 41 -4 26 -3 38 4 34 5 -3 10 3 10 14 0 12 5 21 10 21 6
0 10 -13 10 -30 0 -16 5 -30 10 -30 6 0 10 8 10 17 0 9 3 13 6 10 4 -3 15 -2
25 4 15 7 17 6 13 -6 -4 -10 0 -15 15 -15 15 0 19 -4 14 -17 -6 -16 -5 -16 10
-4 9 7 14 17 11 22 -3 5 0 18 6 29 8 15 8 20 -1 20 -7 0 -10 2 -7 5 8 8 39 -6
33 -15 -3 -4 2 -10 10 -14 8 -3 15 -11 15 -18 0 -8 9 -21 20 -31 16 -13 20
-14 20 -2 0 7 -4 17 -10 20 -16 10 -11 29 11 43 16 10 24 11 33 2 8 -8 7 -13
-3 -19 -16 -10 -11 -43 8 -49 9 -3 11 2 6 18 -6 20 -5 21 23 15 18 -4 33 -2
37 5 5 8 10 8 20 0 8 -7 19 -9 25 -5 5 3 10 -1 10 -9 0 -9 5 -16 10 -16 6 0
10 5 10 10 0 6 5 10 10 10 7 0 7 -6 0 -20 -9 -17 -8 -19 7 -14 10 3 28 11 40
16 27 13 55 4 47 -16 -3 -8 0 -17 7 -22 9 -5 11 -2 6 9 -3 9 0 18 9 21 9 3 14
-1 15 -12 0 -14 2 -14 9 3 4 11 6 32 3 46 -3 15 0 30 6 33 7 5 11 -5 11 -29 0
-22 6 -38 15 -41 8 -4 15 -12 15 -20 0 -8 5 -14 10 -14 19 0 10 -32 -10 -37
-20 -5 -29 -46 -12 -57 10 -6 64 72 58 83 -3 4 4 8 15 8 10 1 19 -5 19 -13 0
-8 -7 -14 -15 -14 -16 0 -18 -12 -9 -59 9 -45 24 -38 25 12 0 23 3 37 5 30 7
-16 34 -5 34 13 0 8 -7 14 -15 14 -24 0 -17 18 8 22 16 2 22 10 22 28 0 18 6
26 23 28 22 3 30 -12 12 -23 -16 -10 -12 -35 5 -29 17 7 21 -11 4 -21 -7 -5
-3 -14 11 -27 23 -22 40 -17 22 5 -7 8 -9 17 -5 21 4 4 6 22 5 41 -2 26 1 35
13 35 9 0 15 6 14 13 -3 22 1 37 9 37 5 0 7 -13 4 -29 -5 -39 17 -51 24 -12 4
21 14 31 31 36 14 3 28 4 31 0 3 -3 -1 -5 -8 -5 -7 0 -19 -8 -26 -17 -15 -20
-19 -53 -6 -53 18 0 52 33 52 51 0 12 7 19 20 19 24 0 26 -13 5 -30 -8 -7 -15
-20 -15 -28 0 -13 3 -12 15 4 15 19 15 19 30 0 9 -11 20 -16 31 -12 9 3 23 1
30 -5 10 -8 17 -7 29 4 18 18 11 25 -27 25 -31 -1 -58 17 -58 38 0 9 11 14 30
14 17 0 30 -4 30 -10 0 -5 7 -10 15 -10 8 0 15 5 15 10 0 6 7 10 15 10 11 0
14 -7 9 -25 -4 -15 -2 -25 5 -25 6 0 11 5 11 10 0 6 6 10 14 10 8 0 17 8 21
18 6 15 8 15 15 -4 7 -17 15 -21 39 -18 21 2 31 -1 31 -10 0 -7 8 -23 19 -34
19 -23 41 -29 41 -12 0 6 5 10 10 10 7 0 7 -6 0 -19 -12 -24 -3 -51 18 -51 13
0 13 -2 0 -17 -18 -22 -12 -57 9 -49 8 3 20 6 26 6 6 0 2 6 -9 14 -15 12 -17
18 -8 33 19 30 44 29 44 -3 0 -38 19 -18 26 28 5 30 3 36 -15 41 -18 4 -21 2
-15 -15 5 -17 2 -19 -22 -16 -21 2 -28 9 -30 31 -2 23 1 27 21 27 18 0 23 4
19 15 -4 9 0 15 7 16 8 1 4 4 -9 7 -32 10 -28 27 7 28 23 1 31 -4 35 -22 4
-13 10 -24 15 -24 5 0 12 -14 16 -30 8 -34 47 -65 70 -56 9 3 21 19 26 36 6
17 18 30 28 30 9 0 22 9 29 20 7 12 8 20 2 20 -5 0 -10 7 -10 15 0 16 25 21
35 6 11 -19 13 -96 3 -109 -8 -9 -8 -16 0 -24 9 -9 12 -6 12 11 0 17 4 22 16
17 13 -5 15 -1 10 20 -6 22 -4 25 13 19 12 -3 21 -1 24 7 2 7 2 2 0 -12 -3
-14 -11 -32 -19 -41 -15 -17 -19 -49 -5 -49 22 0 39 44 44 118 1 12 6 22 11
22 5 0 6 -16 3 -35 -5 -30 -2 -38 18 -51 15 -10 22 -21 18 -31 -4 -9 1 -21 9
-27 9 -6 18 -20 20 -31 3 -14 7 -8 13 20 13 63 35 111 45 95 6 -10 13 -8 30 8
21 20 22 20 41 1 20 -20 25 -39 10 -39 -6 0 -13 5 -16 10 -11 18 -20 11 -32
-27 -17 -57 -4 -69 36 -33 28 26 32 36 29 66 -2 21 0 33 6 31 6 -2 10 -11 8
-21 -2 -9 2 -16 8 -16 5 0 10 6 10 14 0 16 42 46 65 46 8 0 15 -7 15 -15 0 -8
-4 -15 -10 -15 -20 0 -10 -19 12 -22 28 -4 36 -28 9 -28 -28 0 -35 -17 -16
-36 12 -13 19 -14 28 -5 8 8 8 11 -3 11 -10 0 -10 4 2 18 23 26 30 68 14 85
-16 15 -17 69 -1 64 6 -2 10 -13 10 -25 0 -12 6 -27 13 -34 7 -7 12 -26 13
-42 0 -17 4 -40 9 -51 l9 -20 2 20 c1 11 2 37 1 58 0 29 3 37 17 37 9 0 23 -6
29 -12 10 -10 14 -8 18 10 7 24 34 31 34 8 0 -11 7 -13 29 -6 16 4 32 6 35 2
4 -3 12 2 19 12 11 15 14 15 32 2 18 -14 18 -15 3 -16 -10 0 -18 -4 -18 -10 0
-5 8 -10 18 -10 11 0 13 -3 6 -8 -9 -5 -8 -11 3 -21 12 -11 15 -10 20 8 7 27
18 27 37 -1 12 -17 13 -25 4 -36 -9 -10 -8 -16 3 -23 22 -14 44 -6 47 19 2 12
8 22 14 22 5 0 8 -6 5 -14 -3 -8 -9 -32 -12 -53 l-6 -38 22 45 c13 25 23 65
23 90 1 38 4 45 20 42 11 -2 15 1 11 7 -3 6 1 11 11 11 13 0 15 -6 10 -32 -4
-18 -11 -34 -16 -36 -11 -4 -2 -52 12 -67 7 -7 8 -3 4 12 -4 12 -2 24 3 27 6
4 8 13 4 21 -3 8 0 15 6 15 6 0 8 7 4 16 -4 11 -2 15 6 13 7 -3 11 -7 9 -9 -1
-3 5 -16 15 -30 22 -32 22 -39 -3 -33 -15 4 -20 0 -20 -16 0 -12 6 -21 15 -21
9 0 20 -11 25 -25 10 -26 30 -34 30 -12 0 7 -5 18 -11 24 -13 13 6 83 25 95
20 14 30 8 11 -5 -10 -8 -15 -19 -11 -25 13 -22 33 -12 40 18 9 47 30 38 22
-9 -5 -34 -3 -42 16 -55 18 -13 19 -16 5 -16 -23 0 -22 -17 2 -30 24 -12 32
-2 33 41 1 20 4 26 10 17 6 -10 10 -10 18 2 9 13 12 13 24 -2 18 -24 31 -23
33 2 1 11 -2 20 -8 20 -5 0 -9 7 -9 15 0 8 -4 15 -10 15 -5 0 -10 -4 -10 -9 0
-14 -32 -23 -43 -12 -7 7 -5 12 6 16 9 4 13 13 10 21 -3 8 0 14 6 14 6 0 11
-4 11 -10 0 -21 31 -9 40 15 11 28 28 33 36 10 9 -22 24 -18 24 5 0 12 5 17
13 14 9 -3 13 -22 12 -53 -1 -43 1 -48 18 -43 15 4 18 11 13 35 -3 17 -1 36 5
43 13 16 33 19 24 4 -3 -5 -3 -21 1 -35 5 -20 11 -25 25 -22 26 7 24 -10 -2
-18 -13 -5 -18 -12 -14 -23 3 -8 1 -19 -6 -22 -8 -5 -6 -16 6 -36 l16 -29 -5
31 c-4 25 0 36 20 53 13 11 24 27 24 33 0 22 -17 41 -29 34 -6 -4 -11 -2 -11
3 0 6 4 11 9 11 5 0 13 9 16 20 10 30 25 24 25 -10 0 -30 14 -41 23 -17 4 7 6
6 6 -5 1 -9 -4 -18 -11 -20 -7 -3 -9 -12 -4 -23 6 -17 8 -16 21 9 8 16 15 35
15 42 0 22 20 16 29 -8 5 -14 5 -28 -1 -35 -6 -7 -5 -14 2 -18 15 -9 12 -25
-5 -25 -8 0 -15 -7 -15 -15 0 -8 6 -15 13 -15 14 0 37 45 37 72 0 10 7 18 16
18 8 0 12 5 9 10 -3 6 -1 10 4 10 6 0 11 -4 11 -10 0 -5 9 -10 20 -10 11 0 20
5 20 11 0 11 6 10 63 -8 11 -4 17 0 17 11 0 9 5 16 10 16 6 0 10 -9 10 -21 0
-15 5 -20 23 -17 19 3 22 8 19 39 -3 30 1 37 17 42 26 6 33 -5 25 -36 -8 -36
14 -44 27 -10 8 25 15 29 47 29 50 -1 65 -12 57 -43 -5 -21 -3 -24 12 -19 12
5 26 -4 49 -31 26 -31 35 -36 45 -25 18 16 32 15 26 -2 -4 -10 -1 -13 7 -10 8
3 12 14 9 25 -4 13 -10 16 -21 10 -21 -12 -52 -2 -52 18 -1 23 -24 51 -43 51
-20 0 -31 16 -17 25 6 4 7 11 4 17 -4 6 -10 5 -15 -3 -6 -10 -9 -8 -9 9 0 17
6 22 26 22 14 0 23 -4 19 -10 -6 -10 17 -60 44 -92 10 -13 18 -15 26 -8 7 5
23 11 37 12 23 2 25 5 17 26 -11 29 -12 28 23 37 27 7 28 6 22 -24 -4 -20 -3
-31 5 -31 6 0 11 -7 11 -15 0 -8 -4 -15 -10 -15 -5 0 -10 7 -10 15 0 8 -5 15
-11 15 -8 0 -9 -11 -5 -31 3 -17 6 -37 6 -43 0 -6 4 -4 10 4 7 12 12 12 29 -4
21 -19 21 -19 21 22 0 35 4 43 29 55 25 13 31 13 35 1 3 -8 12 -14 21 -14 8 0
14 -6 13 -12 -2 -7 8 -14 22 -16 21 -2 27 3 36 32 6 20 8 37 4 38 -4 2 -4 12
1 23 6 15 8 16 8 4 1 -25 81 -32 81 -7 0 9 5 20 10 23 6 4 10 -8 10 -28 0 -26
-5 -36 -20 -40 -11 -3 -20 -11 -20 -19 0 -10 3 -9 10 2 7 12 11 8 16 -17 4
-21 11 -30 20 -26 8 3 14 -1 14 -10 0 -8 6 -19 13 -25 9 -8 15 -3 23 24 11 35
7 43 -14 22 -9 -9 -12 -9 -12 0 0 7 11 17 23 23 13 6 31 24 41 40 20 33 31 36
46 12 8 -13 13 -14 16 -5 9 21 33 14 27 -8 -3 -11 0 -20 6 -20 6 0 11 5 11 10
0 6 14 10 30 10 31 0 36 6 21 29 -6 10 -19 12 -46 7 -28 -6 -36 -4 -33 6 3 9
23 13 64 11 100 -2 97 -2 90 -20 -6 -15 -5 -15 13 1 11 10 28 16 38 13 16 -4
16 -5 1 -6 -11 -1 -19 -13 -24 -36 -7 -39 -15 -43 -38 -19 -9 8 -21 14 -27 12
-15 -5 -22 -65 -9 -73 6 -4 10 7 10 24 0 17 5 31 10 31 6 0 10 -6 10 -14 0
-41 54 -24 57 18 3 35 9 42 25 29 20 -15 58 -14 58 3 0 8 4 14 10 14 5 0 9
-10 8 -22 -2 -45 2 -69 10 -64 5 3 9 26 10 51 0 26 2 49 5 51 3 4 360 8 415 5
6 -1 12 -9 12 -18 0 -15 2 -15 14 2 10 14 28 19 75 21 41 1 61 -2 61 -10 0
-17 47 -12 68 7 20 19 52 23 52 7 0 -5 7 -10 15 -10 8 0 15 5 15 10 0 6 5 10
11 10 7 0 9 -10 5 -25 -4 -14 -2 -25 3 -25 9 0 25 30 23 43 -1 4 34 7 78 7 52
0 80 -4 80 -11 0 -6 -6 -9 -14 -6 -23 9 -28 -5 -7 -20 11 -7 26 -10 35 -7 11
4 16 1 16 -10 0 -24 18 -19 22 7 2 14 11 23 26 25 12 2 20 8 17 13 -4 5 1 9
10 9 13 0 15 -7 9 -35 -5 -28 -3 -35 10 -35 9 0 16 -5 16 -10 0 -6 10 -2 22 9
11 11 24 18 28 16 5 -3 21 2 36 10 16 8 23 15 17 15 -7 0 -13 7 -13 15 0 10
10 15 33 14 17 -1 24 -3 14 -6 -15 -4 -16 -7 -5 -20 10 -13 10 -17 1 -20 -7
-3 -13 -9 -13 -15 0 -7 4 -7 13 -1 18 15 75 24 82 13 10 -15 25 -12 25 6 0 14
22 44 33 44 2 0 4 -15 3 -32 0 -18 3 -34 9 -35 5 -1 8 10 7 26 -2 16 1 32 7
36 7 4 11 -8 11 -34 0 -51 15 -60 35 -21 17 32 51 52 98 55 19 2 27 -2 27 -13
0 -13 2 -13 18 1 20 19 37 23 27 7 -3 -5 -2 -10 4 -10 5 0 13 5 16 10 12 19
26 10 20 -12 l-7 -23 17 23 c22 30 60 27 59 -5 0 -15 5 -23 16 -23 18 0 40 19
40 35 0 5 -4 4 -9 -4 -5 -7 -14 -10 -21 -6 -9 6 -9 9 1 16 25 15 49 10 59 -13
8 -20 15 -11 11 14 0 4 15 7 34 6 19 -1 32 -5 29 -9 -8 -14 14 -19 28 -6 15
14 118 17 118 3 0 -6 5 -5 12 2 14 14 62 16 53 2 -3 -5 -2 -10 4 -10 5 0 13 5
16 10 11 17 24 11 31 -15 7 -29 22 -32 39 -8 13 17 51 11 40 -7 -3 -5 1 -10 9
-10 10 0 16 9 16 23 0 17 6 23 26 25 14 1 23 -2 19 -8 -9 -14 7 -12 29 5 22
16 62 11 86 -12 13 -12 13 -15 0 -23 -22 -15 7 -32 32 -19 10 5 18 6 18 2 0
-4 8 7 16 24 9 18 21 30 26 27 6 -4 5 -10 -3 -15 -11 -7 -11 -12 4 -26 18 -17
19 -17 42 9 23 27 24 27 31 6 6 -21 7 -21 22 8 9 17 17 24 20 16 3 -10 7 -10
18 -1 10 8 14 8 14 0 0 -7 7 -7 25 1 21 10 28 8 40 -8 8 -10 15 -25 15 -31 0
-16 16 -17 25 -3 4 6 11 8 16 5 5 -4 9 -1 9 4 0 6 -12 11 -26 11 -37 0 -24 25
14 27 25 1 32 -3 32 -18 0 -25 17 -24 25 1 8 26 35 26 42 1 6 -24 33 -35 47
-21 8 8 7 13 -4 20 -12 7 -11 10 5 16 11 5 20 3 23 -4 2 -8 9 -9 20 -3 9 5 54
9 99 10 l83 1 -12 -25 c-6 -14 -8 -28 -4 -33 10 -9 48 37 40 49 -3 5 48 9 118
9 583 2 929 9 999 23 94 18 162 53 215 109 93 99 114 167 114 372 l0 154 50
59 50 58 1 85 c5 377 -4 1946 -11 1963 -4 12 -29 45 -54 72 l-45 50 -1 285
c-1 157 -3 861 -6 1565 -2 704 -5 1684 -5 2178 -1 973 -2 982 -55 1073 -40 69
-89 113 -163 148 l-66 31 -370 5 c-203 3 -1353 6 -2555 8 -1202 2 -2221 5
-2265 7 -44 3 -89 4 -100 2 -11 -1 -200 -2 -420 -1 -220 0 -1804 3 -3520 6
-1716 4 -3129 4 -3140 2z m11487 -616 c15 -7 90 -75 166 -150 76 -76 142 -138
146 -138 10 0 36 -27 36 -37 0 -5 43 -51 95 -103 54 -54 99 -108 104 -125 5
-16 12 -361 15 -765 3 -404 8 -895 11 -1090 17 -1229 22 -2948 8 -2960 -4 -4
-1009 -11 -2233 -14 -1224 -3 -2648 -8 -3165 -11 -517 -3 -1725 -7 -2685 -10
-960 -3 -2161 -8 -2670 -11 -810 -5 -927 -4 -945 9 -20 15 -20 28 -22 2419
l-3 2404 150 157 c83 86 150 161 150 167 0 5 4 10 8 10 4 0 59 51 122 114
l115 114 210 6 c116 3 1616 9 3335 12 1719 4 3126 7 3127 8 1 0 878 2 1950 4
1564 2 1953 0 1975 -10z m1262 -4825 c2 -10 7 -463 11 -1008 5 -814 4 -993 -7
-1008 -11 -14 -13 148 -13 970 0 544 -3 1005 -7 1026 -7 37 6 53 16 20z"/>
<path d="M21860 13807 c-3 -3 -1485 -7 -3295 -11 -3286 -6 -3615 -9 -3712 -27
-72 -14 -137 -59 -159 -112 -17 -39 -18 -92 -16 -877 1 -459 5 -848 8 -865 10
-50 42 -102 76 -128 73 -54 5 -52 1498 -49 762 1 1644 4 1960 6 316 2 1322 5
2235 7 l1660 4 50 26 c55 28 89 71 106 131 12 45 13 477 3 1258 -6 460 -8 509
-25 548 -28 65 -73 81 -246 88 -76 3 -141 3 -143 1z m-6117 -360 c5 3 13 -1
18 -8 6 -10 9 -11 9 -1 0 6 5 12 10 12 6 0 10 -7 10 -15 0 -8 5 -15 10 -15 6
0 10 7 10 15 0 8 1 15 3 15 1 0 26 -7 55 -14 28 -8 52 -12 52 -10 0 3 12 -2
28 -10 15 -8 58 -28 95 -44 174 -74 334 -283 372 -485 48 -252 -30 -489 -216
-661 -80 -74 -207 -143 -314 -171 -67 -17 -260 -21 -270 -5 -4 6 12 10 39 10
25 0 46 4 46 10 0 17 -109 119 -136 126 -22 6 -25 11 -20 35 5 25 2 29 -16 29
-17 0 -19 3 -10 12 13 13 16 29 5 27 -19 -3 -33 2 -33 11 0 6 8 10 18 11 13 0
14 2 2 6 -29 12 -44 36 -46 74 -1 21 -9 50 -18 64 -18 27 -52 35 -42 10 3 -8
-3 -19 -13 -25 -14 -7 -20 -6 -25 6 -10 25 -7 34 9 28 10 -4 15 0 15 14 0 12
9 22 23 27 13 4 17 8 10 12 -17 6 -16 38 1 52 11 9 15 9 19 -1 2 -7 4 -1 3 14
0 16 -5 28 -10 28 -4 0 -5 8 -2 17 4 9 1 20 -6 24 -13 8 -12 8 38 24 10 3 13
11 9 25 -3 11 -2 20 4 20 5 0 13 -9 16 -20 11 -35 25 -22 25 23 0 32 5 45 21
55 16 10 24 10 35 1 11 -9 14 -8 15 7 1 11 1 23 0 27 -2 11 69 39 85 33 7 -3
16 4 19 15 7 22 21 25 28 7 5 -17 37 8 37 28 0 8 3 13 8 13 22 -4 34 3 28 16
-3 9 0 15 9 15 8 0 12 -6 9 -14 -4 -10 0 -13 14 -9 15 3 21 -2 26 -24 7 -24 9
-25 17 -10 6 9 20 17 32 17 13 0 28 5 35 12 9 9 12 7 12 -9 0 -12 5 -25 11
-28 6 -4 9 0 7 11 -2 12 4 20 17 22 17 4 18 2 5 -13 -12 -14 -12 -18 1 -26 8
-5 26 -7 41 -5 17 3 33 -1 43 -10 17 -17 20 -54 5 -54 -5 0 -10 -4 -10 -10 0
-16 28 -11 38 7 8 14 12 13 27 -10 9 -14 22 -24 30 -21 7 3 16 1 20 -5 3 -6
11 -11 16 -11 6 0 7 5 3 12 -4 7 -3 8 5 4 9 -6 9 -11 0 -22 -14 -17 -15 -16
30 -32 40 -14 46 -11 32 15 -6 12 -6 34 -1 59 5 23 5 56 -1 82 -14 63 -72 173
-117 221 l-40 43 -22 -34 c-13 -18 -32 -43 -43 -55 l-19 -22 -79 60 c-44 34
-79 64 -79 69 0 4 18 31 40 59 l40 50 -22 15 c-57 36 -153 59 -281 65 -70 3
-127 2 -127 -3 0 -4 -11 -6 -23 -2 -19 4 -26 0 -35 -19 -9 -19 -8 -23 2 -19
15 6 70 -101 61 -116 -3 -4 -17 -11 -31 -14 -14 -4 -46 -16 -70 -28 -54 -25
-70 -20 -93 33 -19 43 -17 77 5 86 10 4 11 9 1 24 -13 21 -1 50 24 57 11 3 11
1 -1 -7 -12 -9 -11 -11 7 -11 24 0 40 16 21 22 -6 2 5 14 26 26 42 25 46 26
46 12 0 -5 -6 -10 -14 -10 -17 0 -41 -28 -32 -38 4 -4 13 0 20 10 6 9 34 23
61 31 28 9 42 16 33 16 -9 1 -19 5 -22 10 -3 5 24 8 59 6 36 -1 68 2 71 6 2 5
11 6 19 2 9 -3 15 1 15 10 0 13 6 14 31 7 18 -5 36 -7 42 -3z m5417 -16 c0 -5
14 -14 31 -20 39 -13 42 -14 34 -2 -8 14 12 23 35 16 12 -4 17 -12 14 -23 -5
-14 -4 -14 4 -3 6 8 8 20 5 26 -3 9 4 11 21 8 14 -3 23 -10 20 -15 -4 -7 8 -8
35 -3 24 4 47 3 54 -3 7 -5 26 -13 44 -16 17 -4 37 -14 44 -22 6 -8 17 -14 23
-14 31 -1 181 -133 223 -197 9 -13 22 -23 30 -23 10 0 12 -6 8 -19 -3 -11 -1
-22 4 -26 7 -4 8 1 5 12 -10 30 34 -28 55 -72 55 -118 65 -165 65 -305 0 -116
-3 -144 -23 -200 -35 -100 -69 -163 -123 -230 -143 -176 -336 -270 -556 -270
-109 0 -229 26 -283 60 -19 12 -25 19 -14 15 47 -17 94 -25 150 -24 66 0 163
16 112 18 -23 1 -27 5 -22 20 7 24 -12 38 -28 21 -9 -10 -9 -11 1 -6 7 4 12 1
12 -8 0 -10 -9 -16 -25 -16 -14 0 -25 5 -25 10 0 6 -7 10 -15 10 -18 0 -19 12
-4 27 8 8 5 14 -10 22 -16 9 -21 9 -21 -1 0 -9 -3 -9 -10 2 -5 8 -12 11 -16 7
-4 -4 1 -16 11 -27 20 -22 14 -26 -15 -10 -11 6 -17 16 -14 24 3 7 -3 19 -12
27 -13 11 -18 11 -21 2 -3 -7 -14 -13 -26 -12 l-22 0 21 9 c27 11 38 27 24 35
-5 3 -7 17 -4 30 5 20 1 27 -22 37 -44 19 -64 56 -24 43 25 -8 27 11 3 37 -18
21 -37 24 -30 6 3 -9 -6 -13 -24 -14 -35 -1 -37 8 -7 28 33 22 14 44 -20 22
-15 -9 -21 -11 -14 -3 20 21 15 52 -7 46 -14 -3 -18 -1 -14 9 3 8 0 14 -6 14
-6 0 -11 5 -11 11 0 6 7 8 16 5 11 -4 15 -2 11 6 -17 48 -18 58 -3 58 20 0 20
9 1 31 -14 15 -14 18 0 33 9 9 22 16 30 16 17 0 48 67 41 87 -5 13 -4 14 9 3
10 -8 15 -9 15 -1 0 6 11 11 24 11 23 0 24 2 15 32 -9 34 5 55 26 38 16 -14
55 -1 48 16 -3 8 3 17 13 21 11 5 19 15 19 23 0 9 8 14 20 13 10 -1 28 3 38 9
16 8 18 7 13 -10 -4 -11 -3 -23 2 -26 6 -3 13 10 16 29 5 23 11 32 21 29 7 -3
21 5 30 19 13 20 23 25 56 23 21 -1 44 -7 51 -14 7 -7 17 -12 24 -12 6 0 15
-8 18 -17 6 -14 8 -14 22 5 16 24 35 29 32 10 -2 -8 7 -13 20 -12 12 0 22 -5
22 -13 0 -16 22 -17 38 -1 10 10 14 8 18 -9 3 -12 13 -24 22 -27 10 -3 23 -9
30 -12 7 -3 12 1 12 12 0 12 8 8 29 -16 16 -19 27 -40 24 -47 -3 -8 3 -13 16
-13 13 0 19 -5 15 -14 -7 -17 12 -31 21 -16 5 8 11 6 18 -3 7 -8 24 -17 39
-21 30 -7 29 -13 13 114 -11 83 -62 202 -121 278 l-32 43 -44 -56 c-46 -59
-59 -65 -80 -37 -7 10 -34 33 -60 51 -59 39 -61 62 -14 122 19 23 33 46 30 51
-3 4 -22 15 -42 24 -20 9 -54 24 -75 35 -22 10 -43 17 -48 14 -4 -3 -28 5 -51
17 -24 13 -52 26 -63 29 -17 6 -15 7 8 8 15 1 27 -3 27 -8z m-265 -82 c6 -16
9 -18 22 -8 17 15 24 8 54 -59 24 -55 24 -62 -1 -62 -11 0 -48 -11 -82 -25
-42 -17 -65 -22 -73 -15 -18 15 -48 98 -41 115 5 14 93 74 108 75 4 0 10 -9
13 -21z m-1129 -333 c8 -8 14 -21 14 -30 0 -8 5 -18 10 -21 14 -8 13 -45 -1
-45 -8 0 -8 -4 -2 -12 5 -7 8 -60 7 -118 -2 -58 2 -134 8 -170 10 -59 13 -85
18 -130 1 -9 5 -6 10 8 5 12 7 30 4 40 -4 12 -3 13 3 4 15 -20 17 -250 3 -236
-6 6 -12 21 -13 33 -1 11 -5 21 -10 21 -5 0 -6 -11 -3 -24 4 -18 1 -25 -14
-29 -11 -3 -20 -2 -20 2 0 4 -9 17 -20 28 -34 37 -70 218 -71 358 -1 111 18
259 38 303 17 36 19 37 39 18z m-1118 -105 c54 -1 62 -3 62 -20 0 -10 -8 -25
-17 -32 -9 -8 -14 -9 -10 -3 4 7 -58 11 -201 13 -244 2 -330 6 -338 14 -4 3
-4 12 -1 20 4 12 44 14 224 11 120 -2 246 -3 281 -3z m1935 -17 c31 -7 30 -4
16 -64 -6 -25 -11 -63 -12 -85 -2 -42 -3 -43 -66 -29 -23 5 -24 7 -19 89 6 92
12 108 36 101 10 -3 29 -8 45 -12z m-5460 -29 c31 -8 30 -2 16 -100 l-11 -75
-48 0 c-74 0 -80 5 -80 64 0 28 3 68 7 89 6 38 6 38 47 34 23 -3 53 -8 69 -12z
m5636 -523 c25 -21 60 -45 78 -52 l32 -14 -27 -36 c-36 -48 -49 -60 -62 -60
-14 0 -118 97 -131 123 -12 21 23 77 49 77 8 0 36 -17 61 -38z m-5467 -4 c37
-36 91 -78 100 -78 19 0 5 -38 -28 -73 l-35 -37 -53 39 c-29 22 -60 55 -69 73
-16 33 -13 77 4 79 5 1 13 2 18 3 5 0 13 4 17 9 12 12 22 8 46 -15z"/>
</g>
</svg>
